<svg width="321" height="95" viewBox="0 0 321 95" fill="none" xmlns="http://www.w3.org/2000/svg">
<path d="M107.24 39.43L98.735 55.88V64H92.75V55.88L84.245 39.43H91.035L95.795 49.72L100.52 39.43H107.24ZM108.461 54.2C108.461 52.1933 108.835 50.4317 109.581 48.915C110.351 47.3983 111.39 46.2317 112.696 45.415C114.003 44.5983 115.461 44.19 117.071 44.19C118.448 44.19 119.65 44.47 120.676 45.03C121.726 45.59 122.531 46.325 123.091 47.235V44.47H129.076V64H123.091V61.235C122.508 62.145 121.691 62.88 120.641 63.44C119.615 64 118.413 64.28 117.036 64.28C115.45 64.28 114.003 63.8717 112.696 63.055C111.39 62.215 110.351 61.0367 109.581 59.52C108.835 57.98 108.461 56.2067 108.461 54.2ZM123.091 54.235C123.091 52.7417 122.671 51.5633 121.831 50.7C121.015 49.8367 120.011 49.405 118.821 49.405C117.631 49.405 116.616 49.8367 115.776 50.7C114.96 51.54 114.551 52.7067 114.551 54.2C114.551 55.6933 114.96 56.8833 115.776 57.77C116.616 58.6333 117.631 59.065 118.821 59.065C120.011 59.065 121.015 58.6333 121.831 57.77C122.671 56.9067 123.091 55.7283 123.091 54.235ZM145.306 44.26C147.593 44.26 149.413 45.0067 150.766 46.5C152.143 47.97 152.831 50 152.831 52.59V64H146.881V53.395C146.881 52.0883 146.543 51.0733 145.866 50.35C145.19 49.6267 144.28 49.265 143.136 49.265C141.993 49.265 141.083 49.6267 140.406 50.35C139.73 51.0733 139.391 52.0883 139.391 53.395V64H133.406V44.47H139.391V47.06C139.998 46.1967 140.815 45.52 141.841 45.03C142.868 44.5167 144.023 44.26 145.306 44.26ZM164.935 64.28C163.232 64.28 161.715 63.9883 160.385 63.405C159.055 62.8217 158.005 62.0283 157.235 61.025C156.465 59.9983 156.034 58.855 155.94 57.595H161.855C161.925 58.2717 162.24 58.82 162.8 59.24C163.36 59.66 164.049 59.87 164.865 59.87C165.612 59.87 166.184 59.73 166.58 59.45C167 59.1467 167.21 58.7617 167.21 58.295C167.21 57.735 166.919 57.3267 166.335 57.07C165.752 56.79 164.807 56.4867 163.5 56.16C162.1 55.8333 160.934 55.495 160 55.145C159.067 54.7717 158.262 54.2 157.585 53.43C156.909 52.6367 156.57 51.575 156.57 50.245C156.57 49.125 156.874 48.11 157.48 47.2C158.11 46.2667 159.02 45.5317 160.21 44.995C161.424 44.4583 162.859 44.19 164.515 44.19C166.965 44.19 168.89 44.7967 170.29 46.01C171.714 47.2233 172.53 48.8333 172.74 50.84H167.21C167.117 50.1633 166.814 49.6267 166.3 49.23C165.81 48.8333 165.157 48.635 164.34 48.635C163.64 48.635 163.104 48.775 162.73 49.055C162.357 49.3117 162.17 49.6733 162.17 50.14C162.17 50.7 162.462 51.12 163.045 51.4C163.652 51.68 164.585 51.96 165.845 52.24C167.292 52.6133 168.47 52.9867 169.38 53.36C170.29 53.71 171.084 54.2933 171.76 55.11C172.46 55.9033 172.822 56.9767 172.845 58.33C172.845 59.4733 172.519 60.5 171.865 61.41C171.235 62.2967 170.314 62.9967 169.1 63.51C167.91 64.0233 166.522 64.28 164.935 64.28Z" fill="#17594A"/>
<path d="M200.234 47.2C199.791 46.3833 199.149 45.765 198.309 45.345C197.492 44.9017 196.524 44.68 195.404 44.68C193.467 44.68 191.916 45.3217 190.749 46.605C189.582 47.865 188.999 49.5567 188.999 51.68C188.999 53.9433 189.606 55.7167 190.819 57C192.056 58.26 193.747 58.89 195.894 58.89C197.364 58.89 198.601 58.5167 199.604 57.77C200.631 57.0233 201.377 55.95 201.844 54.55H194.249V50.14H207.269V55.705C206.826 57.1983 206.067 58.5867 204.994 59.87C203.944 61.1533 202.602 62.1917 200.969 62.985C199.336 63.7783 197.492 64.175 195.439 64.175C193.012 64.175 190.842 63.65 188.929 62.6C187.039 61.5267 185.557 60.045 184.484 58.155C183.434 56.265 182.909 54.1067 182.909 51.68C182.909 49.2533 183.434 47.095 184.484 45.205C185.557 43.2917 187.039 41.81 188.929 40.76C190.819 39.6867 192.977 39.15 195.404 39.15C198.344 39.15 200.817 39.8617 202.824 41.285C204.854 42.7083 206.196 44.68 206.849 47.2H200.234ZM209.394 54.2C209.394 52.1933 209.767 50.4317 210.514 48.915C211.284 47.3983 212.322 46.2317 213.629 45.415C214.936 44.5983 216.394 44.19 218.004 44.19C219.381 44.19 220.582 44.47 221.609 45.03C222.659 45.59 223.464 46.325 224.024 47.235V44.47H230.009V64H224.024V61.235C223.441 62.145 222.624 62.88 221.574 63.44C220.547 64 219.346 64.28 217.969 64.28C216.382 64.28 214.936 63.8717 213.629 63.055C212.322 62.215 211.284 61.0367 210.514 59.52C209.767 57.98 209.394 56.2067 209.394 54.2ZM224.024 54.235C224.024 52.7417 223.604 51.5633 222.764 50.7C221.947 49.8367 220.944 49.405 219.754 49.405C218.564 49.405 217.549 49.8367 216.709 50.7C215.892 51.54 215.484 52.7067 215.484 54.2C215.484 55.6933 215.892 56.8833 216.709 57.77C217.549 58.6333 218.564 59.065 219.754 59.065C220.944 59.065 221.947 58.6333 222.764 57.77C223.604 56.9067 224.024 55.7283 224.024 54.235ZM240.324 47.725C241.024 46.6517 241.899 45.8117 242.949 45.205C243.999 44.575 245.166 44.26 246.449 44.26V50.595H244.804C243.311 50.595 242.191 50.9217 241.444 51.575C240.697 52.205 240.324 53.325 240.324 54.935V64H234.339V44.47H240.324V47.725ZM248.12 54.2C248.12 52.1933 248.493 50.4317 249.24 48.915C250.01 47.3983 251.048 46.2317 252.355 45.415C253.661 44.5983 255.12 44.19 256.73 44.19C258.013 44.19 259.18 44.4583 260.23 44.995C261.303 45.5317 262.143 46.255 262.75 47.165V38.1H268.735V64H262.75V61.2C262.19 62.1333 261.385 62.88 260.335 63.44C259.308 64 258.106 64.28 256.73 64.28C255.12 64.28 253.661 63.8717 252.355 63.055C251.048 62.215 250.01 61.0367 249.24 59.52C248.493 57.98 248.12 56.2067 248.12 54.2ZM262.75 54.235C262.75 52.7417 262.33 51.5633 261.49 50.7C260.673 49.8367 259.67 49.405 258.48 49.405C257.29 49.405 256.275 49.8367 255.435 50.7C254.618 51.54 254.21 52.7067 254.21 54.2C254.21 55.6933 254.618 56.8833 255.435 57.77C256.275 58.6333 257.29 59.065 258.48 59.065C259.67 59.065 260.673 58.6333 261.49 57.77C262.33 56.9067 262.75 55.7283 262.75 54.235ZM291.475 53.92C291.475 54.48 291.44 55.0633 291.37 55.67H277.825C277.918 56.8833 278.303 57.8167 278.98 58.47C279.68 59.1 280.531 59.415 281.535 59.415C283.028 59.415 284.066 58.785 284.65 57.525H291.02C290.693 58.8083 290.098 59.9633 289.235 60.99C288.395 62.0167 287.333 62.8217 286.05 63.405C284.766 63.9883 283.331 64.28 281.745 64.28C279.831 64.28 278.128 63.8717 276.635 63.055C275.141 62.2383 273.975 61.0717 273.135 59.555C272.295 58.0383 271.875 56.265 271.875 54.235C271.875 52.205 272.283 50.4317 273.1 48.915C273.94 47.3983 275.106 46.2317 276.6 45.415C278.093 44.5983 279.808 44.19 281.745 44.19C283.635 44.19 285.315 44.5867 286.785 45.38C288.255 46.1733 289.398 47.305 290.215 48.775C291.055 50.245 291.475 51.96 291.475 53.92ZM285.35 52.345C285.35 51.3183 285 50.5017 284.3 49.895C283.6 49.2883 282.725 48.985 281.675 48.985C280.671 48.985 279.82 49.2767 279.12 49.86C278.443 50.4433 278.023 51.2717 277.86 52.345H285.35ZM306.532 44.26C308.819 44.26 310.639 45.0067 311.992 46.5C313.369 47.97 314.057 50 314.057 52.59V64H308.107V53.395C308.107 52.0883 307.769 51.0733 307.092 50.35C306.415 49.6267 305.505 49.265 304.362 49.265C303.219 49.265 302.309 49.6267 301.632 50.35C300.955 51.0733 300.617 52.0883 300.617 53.395V64H294.632V44.47H300.617V47.06C301.224 46.1967 302.04 45.52 303.067 45.03C304.094 44.5167 305.249 44.26 306.532 44.26Z" fill="#54B435"/>
<path d="M60.5992 87.3483C58.7421 87.6211 57.2896 88.3931 57.0561 88.5985L57.0468 88.592C51.1852 92.6342 44.0863 95 36.4369 95C16.3133 95 0 78.6275 0 58.431C0 38.2345 16.3133 21.8619 36.4369 21.8619C47.7149 21.8619 57.7962 27.0045 64.4798 35.0806L64.4652 35.0785C66.4755 37.4634 66.9137 39.6496 66.8814 40.4446C67.0103 41.8027 66.4948 44.7573 63.4021 45.7113C62.2945 45.9317 61.2103 45.9583 60.1783 45.851C60.078 45.8335 59.9694 45.8205 59.8522 45.8124C59.6547 45.7863 59.4594 45.7554 59.2663 45.7201C56.6129 45.0625 52.2373 41.1573 50.2577 39.1527L50.2433 39.1789C46.8411 35.3269 42.3819 32.9916 37.5 32.9916C26.8244 32.9916 18.1701 44.1588 18.1701 57.9341C18.1701 71.7095 26.8244 82.8766 37.5 82.8766C42.8796 82.8766 47.7459 80.0409 51.2502 75.4648C51.3561 75.278 51.435 75.0925 51.4918 74.9261C52.0775 73.1404 51.321 69.3719 43.8789 67.0764C43.5696 63.2605 44.0077 60.319 44.2655 59.3253C50.3544 58.9941 64.0593 59.3054 70.1675 63.2008C68.3634 70.1238 66.5722 85.3609 73.8402 90.9258C72.9059 91.0914 70.3608 91.0847 67.6546 89.7333C67.2833 89.5478 66.9329 89.3707 66.6006 89.2028L66.5999 89.2025C63.9062 87.8412 62.4059 87.083 60.5992 87.3483Z" fill="#17594A"/>
<path d="M31.2833 85.6361C31.83 81.1542 31.5111 68.2954 31.2833 62.4263C20.3493 57.2241 14.5027 52.9823 13.8193 44.2586C13.136 35.535 14.3508 27.1314 14.199 27.0514C14.0775 26.9874 9.69378 32.9472 7.51711 35.9351C6.78817 35.743 9.18757 28.4386 10.4784 24.8104C10.4176 23.9781 3.46749 25.1573 0 25.8509C3.46242 22.2654 9.28881 20.0885 11.7692 19.4482C12.5589 18.6799 5.51761 15.1264 1.89826 13.4457C3.84208 11.973 11.0099 14.2727 14.3508 15.6066C13.3182 13.5577 10.8327 7.54985 9.71909 4.80202C10.1443 4.67397 15.1608 8.27015 17.6158 10.0842C18.0375 4.94155 19.4895 1.26263 20.1801 0.0307284C20.1847 0.0104439 20.1905 0 20.1975 0C20.1917 0.0100674 20.186 0.0203104 20.1801 0.0307284C20.0658 0.537202 20.692 7.17857 21.0327 10.5644C25.1026 6.53075 28.1955 4.8287 29.2332 4.48189C27.1071 6.59478 24.0952 13.419 22.855 16.567C28.079 13.2376 33.0803 13.5791 34.928 14.166C35.4139 14.6782 28.3979 18.2744 24.8292 20.0084C30.5999 22.0573 34.6242 25.9843 35.9151 27.6917C32.2704 25.9629 26.7528 25.7442 24.4496 25.8509C25.6037 28.9882 26.0441 32.6538 26.12 34.0944C24.237 31.3412 22.8044 30.5996 22.3235 30.5729C19.2104 64.9073 51.1011 52.182 52.0123 44.2586C52.7412 37.92 52.8222 31.1064 52.7716 28.492C52.2249 28.2359 49.051 33.1873 47.5324 35.695C47.2894 32.8778 49.456 28.3853 50.5696 26.4912C46.6212 25.4667 41.3314 27.3982 39.1801 28.492C39.0586 26.3791 45.8619 22.5428 49.2788 20.8888C42.8399 17.8795 40.3696 16.1135 39.9394 15.6066C41.2757 14.8382 47.583 15.9267 50.5696 16.567C50.9948 15.4145 50.7468 13.3123 50.5696 12.4052C48.6714 7.04297 47.0009 6.16259 47.0768 5.20219C47.1376 4.43387 51.3542 7.70991 53.455 9.44398C54.1383 8.96377 54.6699 1.36057 55.1254 0.480201C55.4899 -0.224096 56.5428 6.90957 57.0237 10.5644C59.332 5.44229 62.7944 3.14799 64.2371 2.64111C61.3821 5.39427 59.8584 12.6987 59.4535 16.0067C63.3259 11.7649 73.4247 10.8846 72.1338 11.2847C71.1012 11.6049 65.4267 17.2339 62.7185 20.0084C66.4644 20.4886 74.1536 21.7051 74.9433 22.7296C75.8604 23.9194 65.3716 25.3856 64.1243 25.3948C64.9929 25.8508 69.9984 31.1824 69.8559 31.9334C69.7344 32.5737 63.9334 29.7992 61.048 28.3319C61.6555 32.4937 61.0986 40.6838 60.7443 44.2586C59.2864 52.7102 48.9498 59.5184 43.9637 61.8661C42.2021 61.4179 42.6222 77.3125 43.0525 85.3159C43.2297 85.5293 43.9485 86.1963 45.4064 87.1567C46.8642 88.1171 48.8991 90.1179 49.7344 90.9983C46.3934 92.9191 43.0525 89.8778 42.9007 90.278C42.7792 90.5981 43.1031 92.3322 43.2803 93.1592C42.0654 93.3513 40.2431 92.0654 39.4838 91.3985C38.8156 92.615 37.4337 94.3064 36.8262 95C35.6113 92.695 34.5989 91.6386 34.2446 91.3985C32.0426 93.0792 29.6128 94.5998 29.385 94.5198C29.2028 94.4558 29.7141 92.679 29.9925 91.7987C28.5346 92.1188 25.4873 92.1455 24.1459 92.1188C27.7905 89.5577 30.4228 86.7299 31.2833 85.6361Z" fill="#54B435"/>
</svg>
