<svg width="395" height="395" viewBox="0 0 395 395" fill="none" xmlns="http://www.w3.org/2000/svg">
<circle cx="197.5" cy="197.5" r="197.5" fill="white"/>
<path d="M283.555 347.361C276.563 348.388 271.093 351.295 270.214 352.069L270.179 352.044C248.108 367.265 221.377 376.173 192.574 376.173C116.8 376.173 55.3738 314.524 55.3738 238.475C55.3738 162.427 116.8 100.777 192.574 100.777C235.041 100.777 273.001 120.141 298.167 150.551L298.112 150.543C305.682 159.524 307.332 167.755 307.211 170.749C307.696 175.863 305.755 186.988 294.109 190.58C289.939 191.41 285.856 191.511 281.97 191.106C281.593 191.04 281.184 190.992 280.742 190.961C279.999 190.863 279.263 190.746 278.536 190.613C268.545 188.137 252.069 173.433 244.615 165.885L244.561 165.983C231.75 151.479 214.959 142.685 196.577 142.685C156.379 142.685 123.792 184.734 123.792 236.604C123.792 288.474 156.379 330.523 196.577 330.523C216.833 330.523 235.157 319.846 248.352 302.615C248.751 301.911 249.048 301.213 249.262 300.586C251.467 293.862 248.619 279.672 220.596 271.029C219.432 256.66 221.081 245.585 222.052 241.843C244.979 240.596 296.584 241.768 319.584 256.436C312.791 282.504 306.046 339.878 333.413 360.832C329.895 361.455 320.312 361.43 310.122 356.342C308.724 355.643 307.404 354.976 306.153 354.344L306.15 354.343C296.008 349.217 290.358 346.362 283.555 347.361Z" fill="#17594A"/>
<path d="M173.169 340.914C175.227 324.037 174.026 275.619 173.169 253.519C131.998 233.931 109.983 217.959 107.409 185.11C104.836 152.262 109.411 120.619 108.839 120.318C108.381 120.077 91.8749 142.518 83.6788 153.769C80.9341 153.046 89.9689 125.541 94.8293 111.88C94.6006 108.745 68.4303 113.186 55.3738 115.797C68.4113 102.296 90.3501 94.0994 99.6898 91.6885C102.663 88.7954 76.1499 75.415 62.5215 69.0865C69.8408 63.5414 96.8307 72.2005 109.411 77.2232C105.522 69.5084 96.1636 46.8862 91.9702 36.5395C93.5713 36.0573 112.46 49.5985 121.705 56.4293C123.293 37.0649 128.76 23.2122 131.36 18.5736C131.378 18.4972 131.399 18.4579 131.426 18.4579C131.404 18.4958 131.382 18.5344 131.36 18.5736C130.93 20.4807 133.288 45.4882 134.571 58.2375C149.896 43.0489 161.542 36.64 165.449 35.3341C157.444 43.29 146.102 68.986 141.433 80.8395C161.103 68.3029 179.935 69.5887 186.892 71.7987C188.722 73.7274 162.304 87.2685 148.866 93.798C170.595 101.513 185.749 116.3 190.609 122.729C176.885 116.219 156.109 115.396 147.437 115.797C151.783 127.611 153.441 141.413 153.727 146.837C146.636 136.471 141.242 133.678 139.431 133.578C127.709 262.861 247.791 214.945 251.222 185.11C253.967 161.243 254.272 135.587 254.081 125.742C252.022 124.778 240.071 143.422 234.353 152.865C233.438 142.257 241.596 125.34 245.79 118.208C230.922 114.351 211.004 121.624 202.903 125.742C202.446 117.786 228.063 103.341 240.929 97.113C216.684 85.7818 207.382 79.1318 205.762 77.2232C210.794 74.3301 234.544 78.4286 245.79 80.8395C247.391 76.4999 246.457 68.5842 245.79 65.1688C238.642 44.9776 232.352 41.6626 232.638 38.0463C232.867 35.1533 248.744 47.489 256.654 54.0184C259.227 52.2103 261.229 23.581 262.944 20.266C264.317 17.6141 268.281 44.4753 270.092 58.2375C278.784 38.9504 291.821 30.3114 297.253 28.4028C286.503 38.7696 280.766 66.2737 279.241 78.73C293.823 62.7579 331.849 59.4429 326.988 60.9497C323.1 62.1552 301.733 83.3508 291.535 93.798C305.64 95.6062 334.593 100.187 337.567 104.044C341.02 108.524 301.526 114.045 296.829 114.08C300.099 115.797 318.947 135.873 318.411 138.701C317.953 141.112 296.11 130.664 285.245 125.14C287.532 140.81 285.436 171.649 284.102 185.11C278.612 216.934 239.69 242.57 220.916 251.41C214.282 249.722 215.864 309.572 217.485 339.708C218.152 340.512 220.858 343.023 226.348 346.639C231.837 350.256 239.5 357.79 242.645 361.105C230.065 368.337 217.485 356.886 216.913 358.393C216.455 359.598 217.675 366.128 218.342 369.242C213.768 369.965 206.906 365.123 204.047 362.612C201.531 367.192 196.327 373.561 194.04 376.173C189.465 367.494 185.653 363.516 184.319 362.612C176.028 368.94 166.879 374.666 166.021 374.365C165.335 374.124 167.26 367.433 168.308 364.118C162.819 365.324 151.344 365.424 146.293 365.324C160.017 355.68 169.928 345.032 173.169 340.914Z" fill="#54B435"/>
</svg>
